<svg width="150" height="150" viewBox="0 0 24 24" fill="none" xmlns="http://www.w3.org/2000/svg">
<path d="M4.99999 21C4.71666 21 4.45833 20.9127 4.22499 20.738C3.99166 20.5627 3.83333 20.3333 3.74999 20.05L0.949993 9.95C0.866659 9.71667 0.903993 9.5 1.06199 9.3C1.22066 9.1 1.43333 9 1.69999 9H6.74999L11.15 2.45C11.2333 2.31667 11.35 2.20833 11.5 2.125C11.65 2.04167 11.8083 2 11.975 2C12.1417 2 12.3 2.04167 12.45 2.125C12.6 2.20833 12.7167 2.31667 12.8 2.45L17.2 9H22.3C22.5667 9 22.7793 9.1 22.938 9.3C23.096 9.5 23.1333 9.71667 23.05 9.95L20.25 20.05C20.1667 20.3333 20.0083 20.5627 19.775 20.738C19.5417 20.9127 19.2833 21 19 21H4.99999ZM9.17499 9H14.8L11.975 4.8L9.17499 9ZM12 17C12.55 17 13.021 16.8043 13.413 16.413C13.8043 16.021 14 15.55 14 15C14 14.45 13.8043 13.979 13.413 13.587C13.021 13.1957 12.55 13 12 13C11.45 13 10.9793 13.1957 10.588 13.587C10.196 13.979 9.99999 14.45 9.99999 15C9.99999 15.55 10.196 16.021 10.588 16.413C10.9793 16.8043 11.45 17 12 17ZM5.49999 19H18.5L20.7 11H3.29999L5.49999 19Z" fill="black"/>
</svg>
